<svg width="58" height="70" viewBox="0 0 58 70" fill="none" xmlns="http://www.w3.org/2000/svg">
<path d="M46.1162 4.58488C45.4617 4.20699 44.6239 4.43148 44.246 5.08595C43.8681 5.74178 44.0926 6.57822 44.7471 6.95611C45.4015 7.33537 46.2393 7.11088 46.6172 6.45504C46.9951 5.80071 46.7706 4.96413 46.1162 4.58488Z" fill="#FFD600"/>
<path d="M29.0019 0C28.2461 0 27.6328 0.613317 27.6328 1.36909C27.6328 2.12487 28.2461 2.73819 29.0019 2.73819C29.7577 2.73819 30.371 2.12487 30.371 1.36909C30.371 0.613317 29.7577 0 29.0019 0Z" fill="#FFD600"/>
<path d="M29.0019 36.4175C28.2461 36.4175 27.6328 37.0308 27.6328 37.7866C27.6328 38.5423 28.2461 39.1557 29.0019 39.1557C29.7577 39.1557 30.371 38.5423 30.371 37.7866C30.371 37.0309 29.7577 36.4175 29.0019 36.4175Z" fill="#FFD600"/>
<path d="M13.7579 5.08595C13.38 4.43148 12.5422 4.20699 11.8877 4.58488C11.2332 4.96413 11.0087 5.80057 11.3866 6.45504C11.7645 7.11088 12.6023 7.33537 13.2568 6.95611C13.9111 6.57822 14.1357 5.74165 13.7579 5.08595Z" fill="#FFD600"/>
<path d="M29.0019 5.47656C28.2459 5.47656 27.6328 6.08947 27.6328 6.84566V12.322C27.6328 13.0782 28.2459 13.6911 29.0019 13.6911C29.758 13.6911 30.371 13.0782 30.371 12.322V6.84552C30.371 6.08947 29.758 5.47656 29.0019 5.47656Z" fill="#FFD600"/>
<path d="M19.2346 14.5725L16.4965 9.82867C16.1183 9.17379 15.2812 8.94889 14.6263 9.32733C13.9715 9.70535 13.747 10.5425 14.125 11.1975L16.8632 15.9415C17.1169 16.3807 17.577 16.6263 18.0503 16.6263C18.2823 16.6263 18.5179 16.5671 18.7334 16.4427C19.3881 16.0647 19.6126 15.2274 19.2346 14.5725Z" fill="#FFD600"/>
<path d="M43.374 9.32772C42.7187 8.94956 41.8818 9.17405 41.5038 9.82907L38.7656 14.5729C38.3876 15.2276 38.6121 16.0649 39.267 16.4429C39.4826 16.5673 39.7179 16.6265 39.95 16.6265C40.4233 16.6265 40.8834 16.3809 41.1371 15.9417L43.8753 11.1979C44.2533 10.543 44.0289 9.70561 43.374 9.32772Z" fill="#FFD600"/>
<path d="M57.7508 37.7772C57.7507 37.7604 57.7497 37.7437 57.7489 37.7268C57.7481 37.7093 57.747 37.6918 57.7456 37.6741C57.7447 37.6629 57.7445 37.6516 57.7433 37.6405C57.7417 37.6252 57.7389 37.6099 57.7369 37.5947C57.7344 37.5776 57.7316 37.5605 57.7286 37.5433C57.7262 37.5304 57.7247 37.5174 57.722 37.5047C57.7193 37.492 57.7156 37.4794 57.7126 37.4667C57.7083 37.4492 57.7037 37.4317 57.6987 37.4142C57.6948 37.4001 57.6914 37.3858 57.687 37.3718C57.6838 37.362 57.6797 37.3523 57.6763 37.3425C57.6699 37.3239 57.6631 37.3054 57.656 37.2869C57.6502 37.2723 57.6449 37.2575 57.6387 37.2432C57.6355 37.2357 57.6315 37.2283 57.6281 37.2208C57.6193 37.2015 57.61 37.1826 57.6005 37.1636C57.5931 37.1491 57.586 37.1346 57.578 37.1206C57.5767 37.1181 57.5757 37.1156 57.5743 37.1132L49.3706 22.6008C49.3665 22.5936 49.3613 22.5874 49.357 22.5803C49.3342 22.5414 49.3093 22.5035 49.2825 22.467C49.2756 22.4574 49.2689 22.4477 49.2617 22.4383C49.2277 22.3941 49.1912 22.3513 49.1517 22.3114C49.1511 22.3109 49.1505 22.3103 49.1498 22.3096C49.1123 22.2719 49.0717 22.2368 49.0296 22.2033C49.0191 22.1949 49.0084 22.1871 48.9977 22.1792C48.9638 22.1539 48.9283 22.1301 48.8915 22.1076C48.8796 22.1003 48.868 22.0927 48.8558 22.0858C48.8092 22.0593 48.7611 22.0346 48.7105 22.0132C48.71 22.013 48.7094 22.0127 48.7087 22.0124C48.7086 22.0123 48.7083 22.0123 48.7082 22.0121C48.6573 21.9908 48.6056 21.9739 48.5538 21.9589C48.5393 21.9548 48.5247 21.9517 48.5101 21.948C48.4693 21.9378 48.4285 21.9296 48.3874 21.9231C48.3728 21.9209 48.3585 21.9185 48.3437 21.9167C48.2889 21.91 48.234 21.9058 48.1795 21.9058C48.1794 21.9058 48.1792 21.9058 48.1789 21.9058H48.1787C48.1763 21.9058 48.1742 21.9058 48.1718 21.9058H29.0006H28.997H9.83571C9.77897 21.9056 9.72223 21.91 9.66522 21.917C9.65196 21.9186 9.63897 21.9209 9.62584 21.923C9.58442 21.9294 9.54299 21.9378 9.5017 21.9481C9.48639 21.952 9.47122 21.9555 9.45618 21.9599C9.41147 21.9728 9.36704 21.9881 9.32301 22.0057C9.31563 22.0087 9.30811 22.0108 9.30073 22.0139C9.2995 22.0145 9.29813 22.0147 9.2969 22.0153C9.24741 22.0363 9.20038 22.0607 9.15485 22.0868C9.14337 22.0933 9.13257 22.1007 9.12136 22.1076C9.08444 22.13 9.04889 22.1539 9.01485 22.1795C9.00364 22.1878 8.99257 22.1963 8.98149 22.205C8.94348 22.2353 8.90712 22.2672 8.87294 22.301C8.86843 22.3054 8.86364 22.3094 8.85927 22.3139C8.82003 22.3537 8.78352 22.3959 8.74975 22.4399C8.74333 22.4483 8.73759 22.4571 8.7313 22.4656C8.70437 22.5024 8.67921 22.5405 8.65624 22.5798C8.65214 22.5869 8.64694 22.593 8.64284 22.6002L0.44455 37.0824C0.444276 37.0828 0.44414 37.0831 0.443866 37.0835L0.427597 37.1121C0.426229 37.1145 0.425272 37.1171 0.423769 37.1196C0.415292 37.1348 0.407636 37.1504 0.399706 37.1659C0.389863 37.1852 0.380292 37.2045 0.371406 37.2243C0.368671 37.2303 0.365663 37.2364 0.362929 37.2424C0.35623 37.2578 0.350488 37.2737 0.344336 37.2895C0.336953 37.3084 0.329844 37.3273 0.323281 37.3466C0.32041 37.3548 0.317129 37.363 0.314531 37.3712C0.309746 37.3862 0.306191 37.4016 0.301816 37.417C0.296758 37.435 0.291699 37.4531 0.287461 37.4715C0.284863 37.4825 0.281719 37.4932 0.279394 37.5042C0.276523 37.518 0.274746 37.5322 0.272285 37.5462C0.269141 37.5639 0.265996 37.5817 0.263535 37.5999C0.261758 37.6133 0.259434 37.6267 0.258067 37.6401C0.256699 37.6524 0.256563 37.6648 0.255469 37.6771C0.253965 37.6953 0.252598 37.7134 0.251914 37.7317C0.251367 37.7467 0.250547 37.7618 0.25041 37.7768C0.25041 37.7799 0.25 37.7831 0.25 37.7862C0.25 37.7947 0.251094 37.8031 0.251231 37.8115C0.251504 37.8296 0.252188 37.8476 0.253145 37.8658C0.253965 37.8807 0.254785 37.8956 0.256153 37.9105C0.257246 37.9232 0.25875 37.9357 0.260254 37.9482C0.262305 37.9655 0.264766 37.9826 0.2675 37.9998C0.269688 38.0133 0.271738 38.0269 0.274336 38.0403C0.276934 38.0542 0.279668 38.068 0.282813 38.0818C0.286504 38.0984 0.290742 38.1146 0.294981 38.131C0.298125 38.1432 0.301406 38.1554 0.304824 38.1675C0.309062 38.1822 0.313301 38.1967 0.317949 38.2112C0.323008 38.2267 0.32875 38.2421 0.334355 38.2574C0.33873 38.2693 0.343242 38.2812 0.34789 38.2931C0.353632 38.3073 0.359238 38.3215 0.36539 38.3356C0.371543 38.3498 0.378379 38.3637 0.385078 38.3777C0.39123 38.3904 0.397519 38.403 0.403945 38.4156C0.410917 38.4288 0.417753 38.4421 0.425136 38.4552C0.432109 38.4676 0.439355 38.4798 0.446738 38.4921C0.454941 38.5058 0.463554 38.5193 0.472304 38.5327C0.48037 38.5452 0.48871 38.5573 0.497186 38.5695C0.504706 38.5802 0.512089 38.5908 0.520018 38.6015C0.530135 38.6152 0.540526 38.6284 0.55119 38.6418C0.560897 38.6538 0.571014 38.6655 0.580994 38.6772C0.586737 38.6839 0.591521 38.691 0.597537 38.6977L28.1504 69.5429C28.1842 69.5808 28.2203 69.6165 28.2578 69.65C28.2632 69.6548 28.2691 69.6589 28.2746 69.6637C28.3141 69.698 28.3555 69.7296 28.3983 69.759C28.4123 69.7685 28.4265 69.7775 28.4407 69.7866C28.4806 69.8117 28.5216 69.8347 28.5637 69.8558C28.5754 69.8615 28.5864 69.8679 28.5982 69.8734C28.6514 69.8979 28.7059 69.9188 28.762 69.9364C28.7754 69.9407 28.7891 69.9437 28.8026 69.9474C28.8476 69.9599 28.8932 69.9702 28.9394 69.9782C28.9564 69.9811 28.9732 69.9841 28.9903 69.9865C29.05 69.9944 29.1101 69.9999 29.1712 69.9999C29.1727 69.9999 29.1741 69.9999 29.1754 69.9999C29.2367 69.9997 29.297 69.994 29.3568 69.9858C29.3739 69.9834 29.3906 69.9804 29.4077 69.9774C29.4541 69.9692 29.5 69.9588 29.5451 69.946C29.5586 69.9422 29.5723 69.9391 29.5857 69.9348C29.6418 69.917 29.6965 69.8957 29.7498 69.8708C29.7614 69.8653 29.7725 69.8589 29.784 69.8531C29.8262 69.832 29.8673 69.8086 29.9073 69.783C29.9216 69.7739 29.9357 69.7647 29.9498 69.755C29.9922 69.7256 30.0332 69.694 30.0723 69.6598C30.0782 69.6546 30.0846 69.6501 30.0905 69.6449C30.1279 69.6109 30.164 69.5749 30.1979 69.5365L57.4089 38.6925C57.4138 38.6869 57.4178 38.6809 57.4226 38.6753C57.4316 38.6648 57.4406 38.6541 57.4494 38.6433C57.4611 38.6287 57.4723 38.6139 57.4834 38.5989C57.4911 38.5885 57.4986 38.5781 57.506 38.5676C57.5136 38.5566 57.521 38.5454 57.5284 38.5342C57.538 38.5196 57.547 38.5048 57.556 38.4899C57.5634 38.4776 57.5708 38.4656 57.5778 38.4531C57.5843 38.4413 57.5905 38.4292 57.5968 38.4171C57.6037 38.4035 57.6104 38.3897 57.617 38.3759C57.6238 38.3617 57.6308 38.3476 57.6371 38.3332C57.6427 38.3204 57.6476 38.3074 57.6528 38.2944C57.6579 38.2817 57.6627 38.2689 57.6673 38.2559C57.673 38.2401 57.6791 38.2244 57.6843 38.2086C57.6885 38.1954 57.6921 38.1822 57.696 38.1689C57.6998 38.1558 57.7031 38.1425 57.7065 38.1293C57.7108 38.1126 57.7154 38.096 57.719 38.0791C57.7217 38.0666 57.724 38.0541 57.7264 38.0414C57.7291 38.0267 57.7313 38.012 57.7336 37.9972C57.7362 37.98 57.7389 37.9629 57.741 37.9455C57.7424 37.9343 57.7436 37.923 57.7445 37.9116C57.7461 37.8952 57.7467 37.8788 57.7477 37.8621C57.7487 37.8445 57.7495 37.8268 57.7497 37.8093C57.7499 37.802 57.7508 37.7947 57.7508 37.7873C57.7512 37.7834 57.7508 37.7804 57.7508 37.7772ZM46.1205 24.6434L41.6816 35.236L32.0878 24.6434H46.1205ZM25.9351 24.6434L16.4281 35.2508L11.9056 24.6434H25.9351ZM9.66043 26.3592L13.9489 36.4174H3.96723L9.66043 26.3592ZM4.67788 39.1556H15.116L24.6481 61.5113L4.67788 39.1556ZM29.1608 65.1142L18.0927 39.1556H23.5243C24.2804 39.1556 24.8934 38.5427 24.8934 37.7865C24.8934 37.0303 24.2804 36.4174 23.5243 36.4174H19.0597L29.006 25.3195L39.0574 36.4174H34.4771C33.721 36.4174 33.108 37.0303 33.108 37.7865C33.108 38.5427 33.721 39.1556 34.4771 39.1556H40.0392L29.1608 65.1142ZM33.6513 61.4834L43.008 39.1556H53.3488L33.6513 61.4834ZM44.1552 36.4174L48.3616 26.3799L54.0357 36.4174H44.1552Z" fill="#FFD600"/>
</svg>
