<svg width="70" height="70" viewBox="0 0 70 70" fill="none" xmlns="http://www.w3.org/2000/svg">
<path d="M24.2633 45.2278C24.0092 44.9735 23.6564 44.8286 23.2969 44.8286C22.9372 44.8286 22.5846 44.9737 22.3303 45.2278C22.076 45.4835 21.9297 45.8362 21.9297 46.1944C21.9297 46.5554 22.0758 46.9067 22.3303 47.161C22.5846 47.4166 22.9372 47.5616 23.2969 47.5616C23.6564 47.5616 24.0092 47.4166 24.2633 47.161C24.5176 46.9067 24.6641 46.5552 24.6641 46.1944C24.6641 45.8362 24.5178 45.4835 24.2633 45.2278Z" fill="white"/>
<path d="M70 46.4715C70 43.7105 68.0598 41.3954 65.4716 40.8141C66.0844 39.8948 66.4424 38.7918 66.4424 37.6065C66.4424 34.4087 63.8408 31.8071 60.643 31.8071H45.4289L47.4191 25.8985C48.2223 23.514 48.0304 20.9687 46.8788 18.7316C45.7272 16.4946 43.7672 14.8594 41.3602 14.1276L38.9614 13.3984C38.2643 13.1864 37.5255 13.5574 37.278 14.2413L33.5088 24.6585C32.439 27.615 30.3293 30.0712 27.5682 31.5745L23.8029 33.625C22.9929 32.5236 21.6889 31.8072 20.2202 31.8072H1.36719C0.612227 31.8072 0 32.4194 0 33.1744V68.6327C0 69.3876 0.612227 69.9999 1.36719 69.9999H20.2202C21.8557 69.9999 23.2868 69.1113 24.0587 67.7923L25.9885 68.5491C28.4437 69.5119 31.0256 70 33.6625 70H57.552C60.7499 70 63.3515 67.3984 63.3515 64.2005C63.3515 63.0057 62.9881 61.8945 62.3664 60.9707C64.9056 60.3537 66.797 58.0621 66.797 55.336C66.797 54.1177 66.4185 52.9864 65.7742 52.0521C68.2094 51.3644 70 49.1239 70 46.4715ZM64.2005 49.5365H60.9975H54.7185H50.1383C49.3834 49.5365 48.7711 50.1487 48.7711 50.9037C48.7711 51.6586 49.3834 52.2709 50.1383 52.2709H54.7185H60.9975C62.6876 52.2709 64.0626 53.6458 64.0626 55.336C64.0626 57.0261 62.6876 58.4011 60.9975 58.4011H57.552H50.6041H50.1385C49.3835 58.4011 48.7713 59.0133 48.7713 59.7682C48.7713 60.5232 49.3835 61.1354 50.1385 61.1354H50.6041H57.552C59.2421 61.1354 60.6171 62.5104 60.6171 64.2005C60.6171 65.8906 59.2421 67.2656 57.552 67.2656H33.6625C31.3686 67.2656 29.1226 66.841 26.9868 66.0034L24.6654 65.093V51.6797C24.6654 50.9247 24.0532 50.3125 23.2982 50.3125C22.5433 50.3125 21.9311 50.9247 21.9311 51.6797V65.5545C21.9311 66.4978 21.1637 67.2654 20.2202 67.2654H2.73438V34.5414H20.2202C21.1635 34.5414 21.9311 35.3089 21.9311 36.2523V40.8946C21.9311 41.6496 22.5433 42.2618 23.2982 42.2618C24.0532 42.2618 24.6654 41.6496 24.6654 40.8946V36.2688L28.876 33.9758C32.2243 32.1527 34.7828 29.1741 36.0801 25.5887L39.4078 16.3919L40.5647 16.7435C42.2585 17.2586 43.6375 18.4089 44.4477 19.983C45.258 21.557 45.3929 23.3477 44.8279 25.0254L42.2302 32.7376C42.0897 33.1548 42.1587 33.6141 42.4154 33.9716C42.6722 34.3291 43.0855 34.5412 43.5258 34.5412H60.643C62.3331 34.5412 63.7081 35.9162 63.7081 37.6063C63.7081 39.2964 62.3331 40.6714 60.643 40.6714H50.1383C49.3834 40.6714 48.7711 41.2836 48.7711 42.0386C48.7711 42.7935 49.3834 43.4057 50.1383 43.4057H54.7106C54.7133 43.4057 54.7159 43.4062 54.7185 43.4062H64.2005C65.8906 43.4062 67.2656 44.7811 67.2656 46.4713C67.2656 48.1616 65.8906 49.5365 64.2005 49.5365Z" fill="white"/>
<path d="M14.9234 56.8105C12.8118 56.8105 11.0938 58.5284 11.0938 60.64C11.0938 62.7517 12.8116 64.4697 14.9234 64.4697C17.0351 64.4697 18.753 62.7518 18.753 60.64C18.753 58.5286 17.035 56.8105 14.9234 56.8105ZM14.9234 61.7353C14.3195 61.7353 13.8281 61.2439 13.8281 60.64C13.8281 60.0362 14.3195 59.5449 14.9234 59.5449C15.5273 59.5449 16.0186 60.0362 16.0186 60.64C16.0186 61.2439 15.5273 61.7353 14.9234 61.7353Z" fill="white"/>
<path d="M41.8221 0.400586C41.5676 0.146289 41.2152 0 40.8555 0C40.4959 0 40.1432 0.146152 39.889 0.400586C39.6347 0.654883 39.4883 1.00762 39.4883 1.36719C39.4883 1.72676 39.6346 2.07949 39.889 2.33365C40.1432 2.58809 40.4959 2.73438 40.8555 2.73438C41.2152 2.73438 41.5678 2.58809 41.8221 2.33365C42.0764 2.07949 42.2227 1.72676 42.2227 1.36719C42.2227 1.00762 42.0765 0.654883 41.8221 0.400586Z" fill="white"/>
<path d="M40.8516 5.104C40.0966 5.104 39.4844 5.71623 39.4844 6.47119V9.79811C39.4844 10.5531 40.0966 11.1653 40.8516 11.1653C41.6065 11.1653 42.2188 10.5531 42.2188 9.79811V6.47119C42.2188 5.71623 41.6067 5.104 40.8516 5.104Z" fill="white"/>
<path d="M58.7981 17.9463H50.3672C49.6121 17.9463 49 18.5584 49 19.3135C49 20.0684 49.6122 20.6807 50.3672 20.6807H58.7981C59.553 20.6807 60.1653 20.0684 60.1653 19.3135C60.1653 18.5585 59.553 17.9463 58.7981 17.9463Z" fill="white"/>
<path d="M31.3373 17.9429H22.9062C22.1513 17.9429 21.5391 18.5551 21.5391 19.3101C21.5391 20.065 22.1512 20.6772 22.9062 20.6772H31.3373C32.0922 20.6772 32.7045 20.065 32.7045 19.3101C32.7045 18.5551 32.0922 17.9429 31.3373 17.9429Z" fill="white"/>
<path d="M34.088 10.6138L30.1075 6.63322C29.5734 6.09947 28.708 6.09947 28.1739 6.63322C27.64 7.16711 27.64 8.03281 28.1739 8.56683L32.1546 12.5474C32.4216 12.8143 32.7714 12.9478 33.1213 12.9478C33.4712 12.9478 33.821 12.8143 34.088 12.5474C34.6219 12.0135 34.6219 11.1478 34.088 10.6138Z" fill="white"/>
<path d="M53.5334 6.63566C52.9993 6.10191 52.1339 6.10191 51.5997 6.63566L47.6192 10.6162C47.0853 11.1501 47.0853 12.0158 47.6192 12.5498C47.8862 12.8167 48.236 12.9503 48.586 12.9503C48.936 12.9503 49.2858 12.8167 49.5528 12.5498L53.5334 8.56928C54.0672 8.03539 54.0672 7.16969 53.5334 6.63566Z" fill="white"/>
</svg>
