<svg width="205" height="186" viewBox="0 0 205 186" fill="none" xmlns="http://www.w3.org/2000/svg">
<g filter="url(#filter0_d)">
<rect x="15" y="11" width="175" height="175" rx="87.5" fill="white"/>
</g>
<path fill-rule="evenodd" clip-rule="evenodd" d="M143.455 125.748C142.891 124.874 142.218 124.101 141.455 123.451L133.698 116.685C133.675 116.651 133.651 116.617 133.625 116.583C133.583 116.529 133.537 116.477 133.487 116.428C133.353 116.293 133.2 116.188 133.038 116.109L128.346 112.018L106.633 93.0769C107.522 92.1477 108.011 90.9326 108.011 89.6405C108.011 88.3094 107.493 87.0585 106.551 86.1168C106.14 85.7066 105.674 85.384 105.175 85.1478L107.184 83.139C107.745 83.2882 108.322 83.3646 108.899 83.3646C110.6 83.3644 112.3 82.7173 113.594 81.423C114.849 80.1684 115.54 78.5008 115.54 76.7273C115.54 74.9537 114.849 73.286 113.594 72.0314L99.508 57.9456C98.2534 56.691 96.5856 56 94.8115 56C93.0383 56 91.371 56.691 90.1165 57.9456C88.3826 59.6794 87.8119 62.1413 88.4006 64.3563L68.3581 84.3986C67.8042 84.2513 67.228 84.1735 66.6393 84.1735C64.8649 84.1735 63.1979 84.8641 61.9443 86.1175C59.3551 88.7067 59.3551 92.9197 61.9443 95.5091L76.0304 109.595C77.3252 110.89 79.0257 111.537 80.7262 111.537C82.4269 111.537 84.1274 110.89 85.4222 109.595C87.1561 107.861 87.7269 105.4 87.1382 103.185L89.1428 101.18C89.3837 101.683 89.7106 102.147 90.1167 102.553C91.0574 103.494 92.308 104.012 93.6388 104.012C94.9296 104.012 96.1442 103.523 97.0747 102.635L120.202 129.207C120.266 129.306 120.34 129.401 120.427 129.488C120.457 129.518 120.488 129.545 120.52 129.572L127.411 137.49C127.583 137.692 127.766 137.891 127.956 138.081C129.849 139.973 132.349 141 134.973 141C135.436 141 135.903 140.968 136.371 140.903C139.497 140.471 142.198 138.601 143.783 135.772C145.518 132.672 145.389 128.736 143.455 125.748ZM92.4645 60.2934C93.0919 59.666 93.9257 59.3203 94.8117 59.3203C95.6989 59.3203 96.5331 59.666 97.1603 60.2934L111.247 74.3794C111.874 75.0068 112.22 75.8407 112.22 76.7274C112.22 77.6141 111.874 78.448 111.246 79.0753C109.952 80.3698 107.846 80.3698 106.552 79.0753L92.4654 64.9887L92.4645 64.9878C91.1701 63.6935 91.1701 61.5876 92.4645 60.2934ZM83.0744 107.247C81.7798 108.542 79.6728 108.542 78.3782 107.247L64.2921 93.1614C62.9973 91.8666 62.9973 89.7602 64.2921 88.4653C64.9183 87.8389 65.7521 87.4939 66.6393 87.4939C67.5263 87.4939 68.3596 87.8387 68.9856 88.4646L83.0742 102.553C84.3688 103.847 84.3688 105.953 83.0744 107.247ZM90.0641 95.5632L85.422 100.205L71.3344 86.1178L90.1165 67.3355L104.204 81.423L99.5535 86.0736L99.5496 86.0773C99.5358 86.0903 99.5222 86.1032 99.5077 86.1176L90.1214 95.5041C90.1041 95.521 90.0874 95.5386 90.0705 95.5564L90.0641 95.5632ZM95.9919 99.0265L95.9821 99.0363L94.813 100.205C94.4994 100.519 94.0825 100.691 93.6386 100.691C93.1948 100.691 92.7778 100.519 92.4644 100.205C92.1504 99.8914 91.9776 99.4741 91.9776 99.03C91.9776 98.5953 92.1435 98.1864 92.4444 97.8779L101.874 88.448C102.521 87.8195 103.566 87.8272 104.204 88.4653C104.518 88.779 104.691 89.1964 104.691 89.6405C104.691 90.0843 104.519 90.5005 104.204 90.8141L103.042 91.9764L103.018 92.0001L95.9919 99.0265ZM99.4298 100.284L104.282 95.432L124.825 113.351L117.329 120.848L99.4298 100.284ZM119.514 123.358L127.333 115.539L129.841 117.726L121.699 125.869L119.514 123.358ZM140.886 134.15C139.814 136.063 138.003 137.326 135.916 137.615C133.834 137.903 131.788 137.217 130.303 135.733C130.176 135.606 130.053 135.473 129.939 135.338L129.932 135.329L129.923 135.319L123.884 128.379L132.349 119.914L139.28 125.96C139.283 125.962 139.286 125.965 139.29 125.968L139.293 125.971L139.296 125.973C139.815 126.414 140.275 126.944 140.666 127.549C141.921 129.489 142.009 132.142 140.886 134.15ZM77.2072 84.944C77.8545 84.2965 78.9071 84.2965 79.5545 84.944C80.2035 85.5931 80.2035 86.644 79.5545 87.2915C78.9072 87.9406 77.8547 87.9406 77.2072 87.2915C76.5581 86.644 76.5581 85.5931 77.2072 84.944ZM103.163 126.887C103.163 128.143 102.768 129.337 102.036 130.329C104.677 131.719 106.483 134.49 106.483 137.677V139.338C106.483 140.254 105.74 140.998 104.823 140.998H61.6602C60.7434 140.998 60 140.254 60 139.338V137.677C60 134.489 61.8081 131.716 64.4516 130.327C63.7412 129.363 63.3202 128.173 63.3202 126.887C63.3202 125.334 63.9245 123.875 65.0219 122.778C66.1188 121.681 67.5779 121.076 69.1307 121.076H97.3527C100.557 121.076 103.163 123.683 103.163 126.887ZM69.1307 124.396C68.4651 124.396 67.8395 124.655 67.3695 125.125C66.8994 125.595 66.6405 126.221 66.6405 126.887C66.6405 128.26 67.7575 129.377 69.1307 129.377H97.3525C98.0181 129.377 98.6437 129.118 99.1137 128.648C99.5838 128.178 99.8428 127.552 99.8428 126.886C99.8428 125.513 98.7259 124.396 97.3527 124.396H69.1307ZM68.3006 132.697C65.5545 132.697 63.3202 134.931 63.3202 137.677H103.163C103.163 134.931 100.929 132.697 98.1828 132.697H97.3527H69.1307H68.3006ZM88.9439 73.2051C89.5924 72.5568 90.6433 72.5568 91.2918 73.2051C91.9401 73.8536 91.9401 74.9046 91.2918 75.5528L84.248 82.5965C83.9237 82.9206 83.4989 83.0828 83.074 83.0828C82.6492 83.0828 82.2244 82.9208 81.9001 82.5965C81.2518 81.9484 81.2518 80.8972 81.9001 80.2489L88.9439 73.2051Z" fill="black"/>
<defs>
<filter id="filter0_d" x="0" y="0" width="205" height="205" filterUnits="userSpaceOnUse" color-interpolation-filters="sRGB">
<feFlood flood-opacity="0" result="BackgroundImageFix"/>
<feColorMatrix in="SourceAlpha" type="matrix" values="0 0 0 0 0 0 0 0 0 0 0 0 0 0 0 0 0 0 127 0"/>
<feOffset dy="4"/>
<feGaussianBlur stdDeviation="7.5"/>
<feColorMatrix type="matrix" values="0 0 0 0 0 0 0 0 0 0 0 0 0 0 0 0 0 0 0.1 0"/>
<feBlend mode="normal" in2="BackgroundImageFix" result="effect1_dropShadow"/>
<feBlend mode="normal" in="SourceGraphic" in2="effect1_dropShadow" result="shape"/>
</filter>
</defs>
</svg>
