<svg width="205" height="186" viewBox="0 0 205 186" fill="none" xmlns="http://www.w3.org/2000/svg">
<g filter="url(#filter0_d)">
<rect x="15" y="11" width="175" height="175" rx="87.5" fill="white"/>
</g>
<path fill-rule="evenodd" clip-rule="evenodd" d="M140.744 77.2511V91.4177C142.581 91.4419 144.203 92.6199 144.794 94.3582C145.213 95.6531 144.987 97.0704 144.186 98.1703C143.384 99.2701 142.105 99.9197 140.744 99.9176H109.581C108.329 99.9176 107.142 99.367 106.334 98.411C105.526 97.4557 105.18 96.1926 105.389 94.9593C105.774 92.936 107.522 91.4592 109.581 91.4177V77.2511C109.592 70.6798 114.592 65.1916 121.134 64.5691L120.205 63.1752C119.74 62.4773 119.494 61.6562 119.496 60.8178V57.418C119.496 56.9622 119.716 56.534 120.086 56.2677C120.454 56 120.929 55.928 121.36 56.0747L125.162 57.3412L128.965 56.0747C129.395 55.928 129.871 56 130.239 56.2677C130.609 56.534 130.829 56.9622 130.829 57.418V60.8178C130.828 61.6548 130.58 62.4724 130.115 63.1683L130.046 63.2686L130.829 63.0078C133.119 62.2421 135.201 60.9555 136.91 59.2497C137.265 58.881 137.792 58.7337 138.288 58.863C138.783 58.9931 139.169 59.3797 139.299 59.875C139.429 60.3703 139.281 60.8974 138.913 61.2529C137.102 63.0452 134.94 64.4445 132.563 65.3611C137.485 67.2529 140.736 71.9774 140.744 77.2511ZM124.715 60.1773L122.329 59.3839V60.8178C122.331 61.0938 122.413 61.3643 122.566 61.5939L124.504 64.5013H125.821L127.759 61.6016C127.913 61.3691 127.996 61.0966 127.996 60.8178V59.3839L125.61 60.1773C125.319 60.2755 125.005 60.2755 124.715 60.1773ZM140.744 97.0843C141.195 97.0864 141.619 96.8719 141.885 96.5074C142.161 96.1262 142.235 95.6344 142.081 95.189C141.833 94.5913 141.235 94.2157 140.589 94.251C139.111 94.2496 137.913 93.0515 137.911 91.5733V77.2511C137.905 71.7768 133.469 67.3408 127.996 67.3346H122.329C116.856 67.3408 112.42 71.7768 112.414 77.2511V91.5733C112.412 93.0515 111.214 94.2496 109.736 94.251C109.007 94.2226 108.358 94.711 108.184 95.4193C108.111 95.8323 108.224 96.257 108.493 96.5779C108.763 96.8996 109.161 97.085 109.581 97.0843H140.744ZM124.229 79.4509L127.361 81.0162L127.367 81.0149C128.623 81.6436 129.416 82.9282 129.416 84.3331C129.416 85.738 128.623 87.0218 127.367 87.6506C127.114 87.7675 126.852 87.8622 126.583 87.9342V90.0011H123.75V87.937C123.482 87.865 123.22 87.7702 122.968 87.6533L121.693 87.0204C120.993 86.6704 120.709 85.8196 121.059 85.1189C121.409 84.4188 122.259 84.1345 122.959 84.4846L124.227 85.1189C124.815 85.4108 125.505 85.4108 126.093 85.1189C126.39 84.9708 126.578 84.6679 126.578 84.3358C126.578 84.0038 126.39 83.7001 126.093 83.5521L122.961 81.9867C121.705 81.358 120.912 80.0741 120.912 78.6692C120.912 77.2643 121.705 75.9798 122.961 75.351C123.214 75.2348 123.475 75.14 123.744 75.0681V73.0012H126.572V75.0667C126.84 75.1387 127.102 75.2334 127.354 75.3496L128.628 75.9833C129.329 76.3326 129.613 77.1841 129.263 77.8841C128.913 78.5848 128.063 78.8684 127.363 78.5191L126.095 77.8841C125.507 77.5929 124.817 77.5929 124.229 77.8841C123.932 78.0321 123.744 78.3358 123.744 78.6678C123.744 78.9999 123.932 79.3028 124.229 79.4509ZM95.4149 132.5V118.334C95.4066 113.06 92.155 108.335 87.2331 106.444C89.6104 105.527 91.7725 104.128 93.5833 102.335C94.1201 101.779 94.1124 100.896 93.566 100.349C93.0196 99.803 92.1364 99.7954 91.5803 100.332C89.8711 102.038 87.7892 103.325 85.4991 104.09L84.7168 104.351L84.7853 104.251C85.2501 103.555 85.4984 102.737 85.4991 101.9V98.5004C85.4991 98.0446 85.2799 97.6164 84.9098 97.3501C84.5412 97.0831 84.066 97.0112 83.6351 97.1571L79.833 98.4237L76.0309 97.1571C75.6 97.0105 75.1248 97.0824 74.7562 97.3501C74.3861 97.6164 74.1669 98.0446 74.1669 98.5004V101.9C74.1641 102.739 74.4103 103.56 74.8751 104.258L75.804 105.651C69.2629 106.274 64.2629 111.762 64.2511 118.334V132.5C62.1927 132.542 60.4442 134.018 60.0596 136.042C59.8507 137.275 60.1966 138.538 61.0044 139.493C61.8123 140.449 62.9999 141 64.2511 141H95.4149C96.7754 141.002 98.0549 140.353 98.8566 139.253C99.6575 138.153 99.8837 136.736 99.4646 135.441C98.8732 133.702 97.2512 132.524 95.4149 132.5ZM76.9999 100.466L79.3855 101.26C79.676 101.358 79.99 101.358 80.2805 101.26L82.6661 100.466V101.9C82.6661 102.179 82.5837 102.452 82.4295 102.684L80.4915 105.584H79.1745L77.2365 102.676C77.0836 102.447 77.0013 102.176 76.9999 101.9V100.466ZM96.5554 137.59C96.2898 137.954 95.8658 138.169 95.4149 138.167H64.2511C63.832 138.167 63.4336 137.982 63.1638 137.66C62.8941 137.339 62.7813 136.915 62.8547 136.502C63.029 135.793 63.6777 135.305 64.4068 135.333C65.8848 135.332 67.0828 134.134 67.0842 132.656V118.334C67.0904 112.859 71.5261 108.423 76.9999 108.417H82.6661C88.1399 108.423 92.5756 112.859 92.5818 118.334V132.656C92.5832 134.134 93.7811 135.332 95.2592 135.333C95.9052 135.298 96.5035 135.674 96.7518 136.271C96.9054 136.717 96.8314 137.209 96.5554 137.59ZM71.3342 118.334H75.3175C76.8336 115.708 79.6342 114.088 82.6664 114.084H84.083V116.918H82.6664C81.299 116.922 79.9807 117.426 78.9577 118.334H81.2499V121.168H77.2016C76.9332 122.093 76.9332 123.075 77.2016 124.001H81.2499V126.834H78.9577C79.9807 127.742 81.299 128.245 82.6664 128.251H84.083V131.084H82.6664C79.6342 131.08 76.8336 129.461 75.3175 126.834H71.3342V124.001H74.2945C74.125 123.064 74.125 122.104 74.2945 121.168H71.3342V118.334ZM121.715 115.258L123.85 117.121C124.486 116.391 125.085 115.631 125.643 114.84L123.332 113.206C122.827 113.917 122.288 114.601 121.715 115.258ZM119.617 121.08L117.904 118.821C118.597 118.294 119.263 117.733 119.9 117.138L121.833 119.208C121.126 119.868 120.386 120.493 119.617 121.08ZM124.727 110.997L127.195 112.389C127.67 111.545 128.102 110.678 128.489 109.79L125.891 108.657C125.543 109.456 125.155 110.237 124.727 110.997ZM129.509 107.067L126.81 106.217C127.072 105.387 127.292 104.544 127.468 103.692L130.243 104.258C130.046 105.206 129.801 106.144 129.509 107.067ZM113.452 121.534L114.669 124.093C115.542 123.676 116.393 123.215 117.219 122.711L115.743 120.293C115.001 120.746 114.237 121.16 113.452 121.534ZM109.211 126.035L108.538 123.281C109.385 123.075 110.221 122.826 111.042 122.534L111.99 125.205C111.089 125.523 110.154 125.803 109.211 126.035ZM99.9467 76.684C100.416 77.3093 101.304 77.4366 101.93 76.9669L107.596 72.717C107.952 72.4493 108.162 72.0294 108.162 71.5839C108.162 71.1378 107.952 70.7179 107.596 70.4502L101.93 66.2002C101.304 65.7312 100.416 65.8578 99.9467 66.4838C99.4771 67.1099 99.6037 67.998 100.23 68.467L102.496 70.1673C88.5522 70.1057 76.6583 80.2492 74.5169 94.029L77.3147 94.471C79.241 82.0698 89.9466 72.9411 102.496 73.0006L100.23 74.7002C99.6037 75.1698 99.4771 76.058 99.9467 76.684ZM105.896 120.034C106.522 119.565 107.41 119.692 107.879 120.317C108.349 120.943 108.222 121.832 107.596 122.3L105.602 123.797C105.662 123.789 105.723 123.785 105.784 123.781C105.846 123.778 105.91 123.774 105.973 123.765L106.355 126.573C106.094 126.609 105.832 126.626 105.57 126.643C105.42 126.653 105.27 126.663 105.12 126.676L107.596 128.533C108.222 129.003 108.349 129.891 107.879 130.517C107.41 131.142 106.522 131.269 105.896 130.8L100.23 126.55C99.8732 126.282 99.6636 125.863 99.6636 125.417C99.6636 124.971 99.8732 124.551 100.23 124.283L105.896 120.034Z" fill="black"/>
<defs>
<filter id="filter0_d" x="0" y="0" width="205" height="205" filterUnits="userSpaceOnUse" color-interpolation-filters="sRGB">
<feFlood flood-opacity="0" result="BackgroundImageFix"/>
<feColorMatrix in="SourceAlpha" type="matrix" values="0 0 0 0 0 0 0 0 0 0 0 0 0 0 0 0 0 0 127 0"/>
<feOffset dy="4"/>
<feGaussianBlur stdDeviation="7.5"/>
<feColorMatrix type="matrix" values="0 0 0 0 0 0 0 0 0 0 0 0 0 0 0 0 0 0 0.1 0"/>
<feBlend mode="normal" in2="BackgroundImageFix" result="effect1_dropShadow"/>
<feBlend mode="normal" in="SourceGraphic" in2="effect1_dropShadow" result="shape"/>
</filter>
</defs>
</svg>
