<svg width="24" height="24" viewBox="0 0 24 24" fill="none" xmlns="http://www.w3.org/2000/svg">
<path fill-rule="evenodd" clip-rule="evenodd" d="M15.25 6C15.25 5.58579 15.5858 5.25 16 5.25H19C19.4142 5.25 19.75 5.58579 19.75 6V18C19.75 18.4142 19.4142 18.75 19 18.75H16C15.5858 18.75 15.25 18.4142 15.25 18C15.25 17.5858 15.5858 17.25 16 17.25H18.25V6.75H16C15.5858 6.75 15.25 6.41421 15.25 6ZM8.53033 8.46967C8.23744 8.17678 7.76256 8.17678 7.46967 8.46967L4.46967 11.4697C4.17678 11.7626 4.17678 12.2374 4.46967 12.5303L7.46967 15.5303C7.76256 15.8232 8.23744 15.8232 8.53033 15.5303C8.82322 15.2374 8.82322 14.7626 8.53033 14.4697L6.81066 12.75H15C15.4142 12.75 15.75 12.4142 15.75 12C15.75 11.5858 15.4142 11.25 15 11.25H6.81066L8.53033 9.53033C8.82322 9.23744 8.82322 8.76256 8.53033 8.46967Z" fill="#FFD600"/>
</svg>
