<svg width="12" height="12" viewBox="0 0 12 12" fill="none" xmlns="http://www.w3.org/2000/svg">
<path d="M3.61182 5.39976C3.49332 5.39976 3.37748 5.43495 3.27895 5.50087C3.18042 5.5668 3.10362 5.6605 3.05827 5.77013C3.01293 5.87977 3.00106 6.0004 3.02418 6.11678C3.0473 6.23317 3.10436 6.34007 3.18815 6.42398C3.27195 6.50789 3.37871 6.56503 3.49493 6.58818C3.61116 6.61133 3.73163 6.59945 3.84111 6.55404C3.95059 6.50863 4.04417 6.43173 4.11 6.33306C4.17584 6.2344 4.21098 6.1184 4.21098 5.99973C4.21098 5.84061 4.14785 5.68801 4.03549 5.57549C3.92313 5.46297 3.77073 5.39976 3.61182 5.39976V5.39976ZM6.00844 5.39976C5.88994 5.39976 5.7741 5.43495 5.67557 5.50087C5.57704 5.5668 5.50025 5.6605 5.4549 5.77013C5.40955 5.87977 5.39768 6.0004 5.4208 6.11678C5.44392 6.23317 5.50098 6.34007 5.58478 6.42398C5.66857 6.50789 5.77533 6.56503 5.89155 6.58818C6.00778 6.61133 6.12825 6.59945 6.23773 6.55404C6.34721 6.50863 6.44079 6.43173 6.50662 6.33306C6.57246 6.2344 6.6076 6.1184 6.6076 5.99973C6.6076 5.84061 6.54447 5.68801 6.43211 5.57549C6.31975 5.46297 6.16735 5.39976 6.00844 5.39976ZM8.40507 5.39976C8.28656 5.39976 8.17072 5.43495 8.07219 5.50087C7.97366 5.5668 7.89687 5.6605 7.85152 5.77013C7.80617 5.87977 7.79431 6.0004 7.81742 6.11678C7.84054 6.23317 7.89761 6.34007 7.9814 6.42398C8.06519 6.50789 8.17195 6.56503 8.28818 6.58818C8.4044 6.61133 8.52487 6.59945 8.63435 6.55404C8.74383 6.50863 8.83741 6.43173 8.90325 6.33306C8.96908 6.2344 9.00422 6.1184 9.00422 5.99973C9.00422 5.84061 8.9411 5.68801 8.82873 5.57549C8.71637 5.46297 8.56397 5.39976 8.40507 5.39976ZM6.00844 0C5.22162 0 4.4425 0.155188 3.71557 0.456703C2.98865 0.758217 2.32814 1.20015 1.77177 1.75728C0.648139 2.88245 0.016888 4.40851 0.016888 5.99973C0.0116501 7.38515 0.490696 8.72874 1.37098 9.79757L0.172668 10.9975C0.089531 11.0819 0.0332127 11.189 0.0108198 11.3054C-0.0115732 11.4218 0.000962781 11.5422 0.0468458 11.6515C0.0966104 11.7594 0.177284 11.8501 0.278627 11.9121C0.37997 11.9741 0.497411 12.0045 0.616044 11.9995H6.00844C7.5975 11.9995 9.12148 11.3674 10.2451 10.2422C11.3687 9.11702 12 7.59096 12 5.99973C12 4.40851 11.3687 2.88245 10.2451 1.75728C9.12148 0.632113 7.5975 0 6.00844 0V0ZM6.00844 10.7995H2.06001L2.61722 10.2415C2.72882 10.1291 2.79145 9.97707 2.79145 9.81857C2.79145 9.66006 2.72882 9.508 2.61722 9.39558C1.83268 8.61084 1.34412 7.57799 1.23479 6.47299C1.12545 5.36799 1.4021 4.25922 2.0176 3.33557C2.63311 2.41192 3.54938 1.73054 4.61032 1.40752C5.67126 1.0845 6.81123 1.13983 7.836 1.56408C8.86077 1.98833 9.70694 2.75524 10.2304 3.73417C10.7538 4.7131 10.922 5.84347 10.7065 6.9327C10.491 8.02193 9.90494 9.00263 9.04828 9.70771C8.19163 10.4128 7.11734 10.7986 6.00844 10.7995V10.7995Z" fill="white"/>
</svg>
