<svg width="205" height="186" viewBox="0 0 205 186" fill="none" xmlns="http://www.w3.org/2000/svg">
<g filter="url(#filter0_d)">
<rect x="15" y="11" width="175" height="175" rx="87.5" fill="white"/>
</g>
<path d="M142.373 99.2668H139.422C139.146 94.6262 138.053 90.1472 136.162 85.9365C135.874 85.2919 135.134 85.0128 134.511 85.3113C133.888 85.6105 133.618 86.3752 133.907 87.0199C135.644 90.8898 136.658 95.0038 136.93 99.2668H79.9751C79.2883 99.2668 78.7319 99.8424 78.7319 100.553C78.7319 101.263 79.2883 101.839 79.9751 101.839H142.373C143.002 101.839 143.513 102.368 143.513 103.019V104.588C143.513 105.239 143.002 105.768 142.373 105.768H64.6271C63.998 105.768 63.487 105.239 63.487 104.588V103.019C63.487 102.368 63.998 101.839 64.6271 101.839H74.1794C74.8662 101.839 75.4233 101.263 75.4233 100.553C75.4233 99.8424 74.8662 99.2668 74.1794 99.2668H70.0699C70.6179 90.7227 74.16 82.7743 80.1301 76.7625C85.8835 70.9694 93.3179 67.559 101.263 67.0184C101.268 67.0184 101.272 67.019 101.277 67.0184C101.615 66.9956 101.95 66.9781 102.281 66.9654C102.347 66.9634 102.412 66.96 102.479 66.958C102.597 66.954 102.714 66.9513 102.83 66.9486C103.053 66.9446 103.276 66.9405 103.5 66.9405C103.797 66.9405 104.094 66.9466 104.39 66.9546C104.478 66.9573 104.565 66.96 104.653 66.9627C104.881 66.9707 105.109 66.9828 105.337 66.9956C105.457 67.0023 105.578 67.009 105.699 67.017C115.907 67.7106 125.299 73.2019 131.143 82.0069C131.531 82.5919 132.306 82.7415 132.872 82.339C133.438 81.9372 133.582 81.1362 133.193 80.5506C127.442 71.8858 118.491 66.2107 108.597 64.747C109.217 63.7515 109.565 62.5796 109.565 61.352C109.565 60.6531 109.264 59.3644 107.244 58.5957C106.236 58.212 104.906 58 103.5 58C102.093 58 100.763 58.212 99.7549 58.5957C97.7355 59.3644 97.4346 60.6531 97.4346 61.352C97.4346 62.5763 97.7815 63.7462 98.3976 64.7396C90.8861 65.8391 83.9192 69.3568 78.3953 74.9191C71.9421 81.4173 68.1296 90.0224 67.5777 99.2662H64.6271C62.6271 99.2668 61 100.95 61 103.019V104.588C61 106.658 62.6271 108.341 64.6271 108.341H78.0218C77.3532 108.814 76.7125 109.346 76.1126 109.935L76.088 109.96C76.0497 109.996 76.0134 110.036 75.9803 110.078L70.077 117.493C69.3364 117.007 68.4597 116.83 67.5946 117.002C66.6925 117.18 65.9124 117.711 65.3975 118.498L63.0758 122.039C62.0143 123.659 62.4241 125.872 63.9889 126.971L79.8752 138.135C80.4511 138.539 81.1164 138.75 81.798 138.75C82.0146 138.75 82.2331 138.729 82.451 138.686C83.3524 138.507 84.1326 137.976 84.6475 137.19L86.9691 133.648C88.0307 132.028 87.6215 129.815 86.0567 128.716L85.9659 128.652C87.0716 127.354 88.5456 126.424 90.1494 126.04C93.5287 125.231 97.5053 125.752 100.202 126.214C103.539 126.785 107.043 126.59 110.337 125.649L114.916 124.34C117.965 123.468 120.772 122 123.258 119.975C123.277 119.96 123.295 119.945 123.314 119.928L131.174 112.727C132.514 111.666 132.806 109.829 132.343 108.341H142.373C144.373 108.341 146 106.658 146 104.589V103.019C146 100.95 144.373 99.2668 142.373 99.2668V99.2668ZM103.5 60.5726C105.594 60.5726 106.849 61.1085 107.078 61.4064C107.062 62.6266 106.465 63.7522 105.494 64.427C105.25 64.4136 105.008 64.4029 104.768 64.3935C104.687 64.3908 104.606 64.3868 104.525 64.3848C104.178 64.374 103.835 64.3687 103.5 64.3687C103.262 64.3687 103.019 64.372 102.775 64.3774C102.657 64.3794 102.538 64.3827 102.42 64.3868C102.278 64.3915 102.136 64.3962 101.993 64.4022C101.83 64.4096 101.667 64.417 101.505 64.4264C100.534 63.7515 99.9384 62.6259 99.9216 61.4064C100.151 61.1085 101.406 60.5726 103.5 60.5726V60.5726ZM112.417 108.961C112.324 108.744 112.213 108.537 112.088 108.341H124.015L118.858 111.871L111.507 114.071L111.257 114.077C112.672 112.857 113.189 110.773 112.417 108.961V108.961ZM98.9333 108.341L97.1389 108.728L95.7517 108.341H98.9333ZM84.9108 132.205L82.5898 135.746C82.4478 135.963 82.2325 136.11 81.9835 136.159C81.7351 136.208 81.4822 136.155 81.2727 136.007L65.3864 124.843C64.9545 124.54 64.8417 123.93 65.1348 123.483L67.4565 119.941C67.5985 119.725 67.8131 119.578 68.0621 119.529C68.1225 119.517 68.1828 119.511 68.2424 119.511C68.4305 119.511 68.614 119.569 68.7729 119.681L69.6309 120.283C69.6309 120.284 69.6315 120.284 69.6315 120.284L84.6592 130.844C85.0911 131.147 85.2039 131.758 84.9108 132.205V132.205ZM129.648 110.695C129.618 110.718 129.59 110.742 129.562 110.767L121.693 117.977C119.474 119.777 116.971 121.084 114.253 121.86L109.675 123.169C106.727 124.012 103.592 124.187 100.61 123.676C97.7031 123.179 93.3996 122.621 89.5884 123.534C87.3809 124.063 85.3654 125.375 83.8991 127.199L72.1464 118.941L77.8506 111.775C80.0081 109.668 82.7442 108.417 85.3641 108.341H85.4147C86.2272 108.327 87.0872 108.574 87.997 108.838C88.1799 108.89 88.3621 108.943 88.545 108.994L96.7783 111.292C96.967 111.344 97.1648 111.35 97.3561 111.309L108.139 108.983C108.628 108.878 109.142 108.981 109.549 109.266C109.811 109.45 110.016 109.704 110.141 109.998C110.511 110.866 110.163 111.884 109.336 112.324L105.658 114.339C105.148 114.618 104.892 115.222 105.036 115.799C105.182 116.376 105.689 116.77 106.266 116.762L111.724 116.639C111.832 116.637 111.939 116.62 112.042 116.589L119.731 114.288C119.853 114.252 119.967 114.197 120.072 114.125L127.83 108.814C128.481 108.398 129.347 108.056 129.808 108.759C130.168 109.307 130.176 110.292 129.648 110.695V110.695Z" fill="black"/>
<defs>
<filter id="filter0_d" x="0" y="0" width="205" height="205" filterUnits="userSpaceOnUse" color-interpolation-filters="sRGB">
<feFlood flood-opacity="0" result="BackgroundImageFix"/>
<feColorMatrix in="SourceAlpha" type="matrix" values="0 0 0 0 0 0 0 0 0 0 0 0 0 0 0 0 0 0 127 0"/>
<feOffset dy="4"/>
<feGaussianBlur stdDeviation="7.5"/>
<feColorMatrix type="matrix" values="0 0 0 0 0 0 0 0 0 0 0 0 0 0 0 0 0 0 0.1 0"/>
<feBlend mode="normal" in2="BackgroundImageFix" result="effect1_dropShadow"/>
<feBlend mode="normal" in="SourceGraphic" in2="effect1_dropShadow" result="shape"/>
</filter>
</defs>
</svg>
