<svg width="205" height="186" viewBox="0 0 205 186" fill="none" xmlns="http://www.w3.org/2000/svg">
<g filter="url(#filter0_d)">
<rect x="15" y="11" width="175" height="175" rx="87.5" fill="white"/>
</g>
<path fill-rule="evenodd" clip-rule="evenodd" d="M135.039 63.6121L142.165 56.487C142.814 55.8385 143.864 55.8385 144.513 56.487C145.161 57.1355 145.161 58.1867 144.513 58.8352L137.388 65.9603C140.556 70.1444 140.568 75.8882 137.518 79.9828L143.523 85.818L143.54 85.8349C145.487 87.781 145.487 90.9308 143.54 92.8776L96.6738 139.543C94.7316 141.486 91.5786 141.486 89.6324 139.54L83.0476 132.956C78.8382 134.426 74.0659 133.365 70.8507 130.149C67.6348 126.934 66.5739 122.162 68.0447 117.952L61.4598 111.368C59.5131 109.421 59.5137 106.27 61.4598 104.324L108.12 57.4624C110.079 55.5026 113.229 55.5234 115.165 57.4598L115.182 57.4766L121.018 63.4824C125.141 60.4215 130.882 60.4727 135.039 63.6121ZM133.58 80.0963C133.578 79.6514 133.753 79.2247 134.067 78.9102C136.945 76.0321 137.198 71.5783 135.009 68.3384L132.575 70.7728C133.44 72.5815 133.166 74.8778 131.6 76.4433C129.654 78.3901 126.502 78.3894 124.556 76.4433C122.614 74.5017 122.614 71.3416 124.556 69.3993C126.086 67.8688 128.373 67.5452 130.224 68.4272L132.659 65.9921C129.381 63.7865 124.931 64.09 122.09 66.9331C121.406 67.6159 120.345 67.5537 119.725 66.9155L112.81 59.8002C112.161 59.1582 111.116 59.1621 110.471 59.8073L63.81 106.669C63.1602 107.319 63.1602 108.372 63.808 109.02L71.1704 116.382C71.6652 116.877 71.7962 117.628 71.4992 118.262C70.0012 121.454 70.684 125.288 73.1989 127.801C75.7118 130.315 79.5457 130.998 82.7383 129.5C82.964 129.395 83.2045 129.343 83.4432 129.343C83.8738 129.343 84.2992 129.511 84.617 129.83L91.98 137.192C92.6272 137.84 93.681 137.84 94.3288 137.192L141.194 90.5267C141.836 89.886 141.843 88.8407 141.199 88.1896L134.084 81.2746C133.765 80.9653 133.584 80.5405 133.58 80.0963ZM129.252 74.0957C129.903 73.4453 129.9 72.3947 129.252 71.7469C128.605 71.099 127.551 71.1003 126.903 71.7469C126.256 72.3941 126.256 73.4479 126.904 74.0957C127.553 74.7442 128.604 74.7442 129.252 74.0957ZM110.469 65.3923C110.028 65.3923 109.606 65.5668 109.295 65.8781L91.8654 83.3078C91.2169 83.9563 91.2169 85.0075 91.8654 85.656C92.5139 86.3045 93.5651 86.3045 94.213 85.656L110.469 69.4001L131.598 90.5301L94.3277 127.801L73.1978 106.671L84.8221 95.0469C85.4706 94.3991 85.4706 93.3478 84.8221 92.6993C84.1736 92.0515 83.1224 92.0515 82.4739 92.6993L69.6765 105.497C69.028 106.145 69.028 107.197 69.6765 107.845L93.154 131.323C93.8025 131.971 94.853 131.971 95.5015 131.323L135.12 91.7039C135.769 91.0554 135.769 90.0042 135.12 89.3557L111.643 65.8781C111.331 65.5668 110.909 65.3923 110.469 65.3923ZM105.952 85.657C107.894 87.5986 107.894 90.7581 105.952 92.6997C104.01 94.642 100.85 94.6413 98.9083 92.6997C96.9615 90.7529 96.9615 87.6032 98.9083 85.657C100.854 83.7102 104.006 83.7109 105.952 85.657ZM103.605 88.0046C102.956 87.3561 101.905 87.3561 101.256 88.0046C100.605 88.6551 100.608 89.7043 101.256 90.3515C101.903 90.9994 102.957 90.9987 103.605 90.3515C104.251 89.7043 104.251 88.6518 103.605 88.0046ZM89.5177 88.005C90.1669 88.6522 90.1669 89.7034 89.5177 90.3525C88.8705 90.9997 87.8193 90.9997 87.1702 90.3525C86.521 89.7034 86.521 88.6522 87.1702 88.005C87.8193 87.3558 88.8705 87.3558 89.5177 88.005ZM98.9083 104.438C96.9615 106.384 96.9615 109.536 98.9083 111.482C100.854 113.428 104.005 113.429 105.952 111.482C107.894 109.54 107.894 106.38 105.952 104.438C104.006 102.492 100.854 102.492 98.9083 104.438ZM103.605 109.135C102.956 109.783 101.904 109.783 101.256 109.135C100.608 108.487 100.605 107.436 101.256 106.786C101.905 106.137 102.956 106.137 103.605 106.786C104.252 107.433 104.252 108.487 103.605 109.135ZM91.0172 102.545C90.1191 102.724 89.2436 102.143 89.064 101.242C88.8837 100.344 89.4667 99.4687 90.3661 99.2891L113.844 94.5927C114.742 94.413 115.617 94.9954 115.797 95.8948C115.977 96.7937 115.394 97.6685 114.495 97.8481L91.0172 102.545Z" fill="black"/>
<defs>
<filter id="filter0_d" x="0" y="0" width="205" height="205" filterUnits="userSpaceOnUse" color-interpolation-filters="sRGB">
<feFlood flood-opacity="0" result="BackgroundImageFix"/>
<feColorMatrix in="SourceAlpha" type="matrix" values="0 0 0 0 0 0 0 0 0 0 0 0 0 0 0 0 0 0 127 0"/>
<feOffset dy="4"/>
<feGaussianBlur stdDeviation="7.5"/>
<feColorMatrix type="matrix" values="0 0 0 0 0 0 0 0 0 0 0 0 0 0 0 0 0 0 0.1 0"/>
<feBlend mode="normal" in2="BackgroundImageFix" result="effect1_dropShadow"/>
<feBlend mode="normal" in="SourceGraphic" in2="effect1_dropShadow" result="shape"/>
</filter>
</defs>
</svg>
