<svg xmlns="http://www.w3.org/2000/svg" viewBox="0 0 234.84 234.84"><defs><style>.cls-1{fill:#4d60a8;}.cls-2{fill:#f5d030;}.cls-3{fill:#262424;}</style></defs><title>Asset 1</title><g id="Layer_2" data-name="Layer 2"><g id="Layer_1-2" data-name="Layer 1"><circle class="cls-1" cx="117.42" cy="117.42" r="117.42" transform="translate(-1.91 1.94) rotate(-0.94)"/><path class="cls-2" d="M80.54,74.37l0,6.6H62L62,107.3H80.54v6.54H54.09V74.37ZM75.85,98.11H67.06l-3.67-7.33H75.85Z"/><path class="cls-2" d="M162.18,73.86A18.87,18.87,0,0,1,170,75.47a19.54,19.54,0,0,1,10.41,10.77,20.68,20.68,0,0,1,1.49,7.87,21.36,21.36,0,0,1-1.07,6.76A19.59,19.59,0,0,1,173,111.11a18.6,18.6,0,0,1-6,2.62L163.08,107a10.25,10.25,0,0,0,4.31-1.27,11.7,11.7,0,0,0,3.36-2.82,13,13,0,0,0,2.19-4,14.59,14.59,0,0,0,.79-4.82,14.44,14.44,0,0,0-.87-5,13,13,0,0,0-2.4-4.12,11.08,11.08,0,0,0-3.63-2.76,11.23,11.23,0,0,0-9.31,0A11.52,11.52,0,0,0,153.86,85a13.09,13.09,0,0,0-2.43,4.12,14.89,14.89,0,0,0,0,10,13,13,0,0,0,2.43,4.12,11.38,11.38,0,0,0,3.66,2.76,10.61,10.61,0,0,0,4.66,1v7.33a19.19,19.19,0,0,1-7.78-1.58,19.41,19.41,0,0,1-6.27-4.34A20.32,20.32,0,0,1,144,102a21.5,21.5,0,0,1,0-15.73A19.54,19.54,0,0,1,154.4,75.47,18.88,18.88,0,0,1,162.18,73.86Z"/><path class="cls-3" d="M82.93,153.22a16.86,16.86,0,0,1-2.57,3.15,17.4,17.4,0,0,1-3.27,2.44,15.74,15.74,0,0,1-3.83,1.57,16.32,16.32,0,0,1-20.59-15.79A16.35,16.35,0,0,1,57.44,133a16.54,16.54,0,0,1,5.2-3.5A16.1,16.1,0,0,1,69,128.25a16.67,16.67,0,0,1,4.25.54,15.77,15.77,0,0,1,3.83,1.58,17,17,0,0,1,3.27,2.44A16.24,16.24,0,0,1,82.93,136l-5.34,3.42a10.37,10.37,0,0,0-3.51-3.94A9,9,0,0,0,69,134a8.65,8.65,0,0,0-3.79.85,10,10,0,0,0-3.1,2.28,10.78,10.78,0,0,0-2.1,3.38,11.21,11.21,0,0,0,2.1,11.64,10,10,0,0,0,3.1,2.28,8.78,8.78,0,0,0,3.79.84,9,9,0,0,0,5.07-1.48,10.32,10.32,0,0,0,3.51-4Z"/><path class="cls-3" d="M108.13,128.2a15.28,15.28,0,0,1,6.3,1.3A16.07,16.07,0,0,1,119.5,133a15.87,15.87,0,0,1,3.35,5.2,16.75,16.75,0,0,1,1.21,6.37,17.46,17.46,0,0,1-.86,5.48,16.35,16.35,0,0,1-2.47,4.7,15.83,15.83,0,0,1-3.81,3.58,14.89,14.89,0,0,1-4.86,2.12l-3.2-5.43a8.15,8.15,0,0,0,3.49-1,9.68,9.68,0,0,0,2.72-2.29,10.58,10.58,0,0,0,1.78-3.24,12.08,12.08,0,0,0-.07-8,10.7,10.7,0,0,0-1.94-3.34A9,9,0,0,0,111.9,135a9.05,9.05,0,0,0-7.53,0,9.08,9.08,0,0,0-3,2.23,10.37,10.37,0,0,0-2,3.34,12,12,0,0,0,0,8.12,10.22,10.22,0,0,0,2,3.33,9.1,9.1,0,0,0,3,2.24,8.53,8.53,0,0,0,3.76.82V161a15.61,15.61,0,0,1-11.37-4.8A16.34,16.34,0,0,1,93.41,151a17.37,17.37,0,0,1,0-12.74,15.88,15.88,0,0,1,8.42-8.72A15.28,15.28,0,0,1,108.13,128.2Z"/><path class="cls-3" d="M142.6,128.61v31.95h-6.67V128.61Z"/><path class="cls-3" d="M161.58,128.61l20.59,29.67v2.28h-6.66l-13.93-20.08v20.08h-6.66V128.61Zm13.93,0h6.66v23.92l-6.66-4.79Z"/><polygon class="cls-2" points="125.02 74.37 113.22 103.26 104.43 82.28 99.33 90.66 108.89 113.84 117.35 113.84 133.53 74.37 125.02 74.37"/><polygon class="cls-2" points="104.06 81.4 101.11 74.37 92.6 74.37 97.22 85.56 104.06 81.4"/></g></g></svg>