<?xml version="1.0" encoding="UTF-8" standalone="no"?>
<!DOCTYPE svg PUBLIC "-//W3C//DTD SVG 1.1//EN" "http://www.w3.org/Graphics/SVG/1.1/DTD/svg11.dtd">
<svg width="100%" height="100%" viewBox="0 0 1884 1703" version="1.1" xmlns="http://www.w3.org/2000/svg" xmlns:xlink="http://www.w3.org/1999/xlink" xml:space="preserve" xmlns:serif="http://www.serif.com/" style="fill-rule:evenodd;clip-rule:evenodd;stroke-linejoin:round;stroke-miterlimit:1.41421;">
    <g id="Layer-1" serif:id="Layer 1" transform="matrix(4.16667,0,0,4.16667,0,0)">
        <g transform="matrix(1,0,0,1,340.996,204.027)">
            <path d="M0,0C0,64.849 -52.569,117.42 -117.419,117.42C-182.27,117.42 -234.839,64.849 -234.839,0C-234.839,-64.849 -182.27,-117.42 -117.419,-117.42C-52.569,-117.42 0,-64.849 0,0" style="fill:rgb(29,150,211);fill-rule:nonzero;"/>
        </g>
        <g transform="matrix(1,0,0,1,182.011,176.709)">
            <path d="M0,8.007L-8.797,8.007L-12.459,0.677L0,0.677L0,8.007ZM4.682,-15.73L4.734,-9.135L-13.813,-9.135L-13.869,17.196L4.682,17.196L4.682,23.737L-21.762,23.737L-21.762,-15.73L4.682,-15.73Z" style="fill:rgb(252,211,37);fill-rule:nonzero;"/>
        </g>
        <g transform="matrix(1,0,0,1,268.334,200.954)">
            <path d="M0,-40.484C2.781,-40.484 5.375,-39.947 7.777,-38.875C10.186,-37.804 12.271,-36.357 14.039,-34.535C15.805,-32.711 17.186,-30.568 18.184,-28.107C19.18,-25.644 19.678,-23.023 19.678,-20.242C19.678,-17.875 19.316,-15.619 18.605,-13.477C17.889,-11.334 16.875,-9.396 15.563,-7.67C14.246,-5.939 12.676,-4.464 10.855,-3.242C9.029,-2.019 7.025,-1.147 4.848,-0.621L0.9,-7.332C2.482,-7.444 3.916,-7.867 5.217,-8.599C6.512,-9.332 7.629,-10.27 8.568,-11.42C9.508,-12.565 10.24,-13.9 10.768,-15.421C11.295,-16.943 11.555,-18.55 11.555,-20.242C11.555,-22.008 11.266,-23.681 10.684,-25.261C10.1,-26.838 9.303,-28.212 8.287,-29.375C7.275,-30.541 6.061,-31.463 4.65,-32.14C3.24,-32.814 1.689,-33.152 0,-33.152C-1.691,-33.152 -3.244,-32.814 -4.652,-32.14C-6.061,-31.463 -7.283,-30.541 -8.316,-29.375C-9.352,-28.212 -10.158,-26.838 -10.742,-25.261C-11.326,-23.681 -11.617,-22.008 -11.617,-20.242C-11.617,-18.474 -11.326,-16.802 -10.742,-15.222C-10.158,-13.645 -9.352,-12.272 -8.316,-11.109C-7.283,-9.941 -6.061,-9.021 -4.652,-8.344C-3.244,-7.67 -1.691,-7.332 0,-7.332L0,0C-2.783,0 -5.375,-0.526 -7.781,-1.578C-10.188,-2.63 -12.271,-4.078 -14.043,-5.921C-15.805,-7.76 -17.187,-9.914 -18.184,-12.377C-19.18,-14.838 -19.678,-17.461 -19.678,-20.242C-19.678,-23.023 -19.18,-25.644 -18.184,-28.107C-17.187,-30.568 -15.805,-32.711 -14.043,-34.535C-12.271,-36.357 -10.188,-37.804 -7.781,-38.875C-5.375,-39.947 -2.783,-40.484 0,-40.484" style="fill:rgb(252,211,37);fill-rule:nonzero;"/>
        </g>
        <g transform="matrix(1,0,0,1,189.091,222.567)">
            <path d="M0,17.255C-0.729,18.412 -1.59,19.462 -2.578,20.404C-3.568,21.349 -4.656,22.162 -5.842,22.847C-7.029,23.531 -8.309,24.057 -9.676,24.422C-11.047,24.786 -12.461,24.969 -13.922,24.969C-16.176,24.969 -18.297,24.543 -20.289,23.691C-22.283,22.84 -24.018,21.676 -25.494,20.199C-26.971,18.723 -28.135,16.988 -28.984,14.994C-29.838,13.002 -30.264,10.879 -30.264,8.627C-30.264,6.376 -29.838,4.252 -28.984,2.26C-28.135,0.266 -26.971,-1.468 -25.494,-2.944C-24.018,-4.42 -22.283,-5.584 -20.289,-6.436C-18.297,-7.287 -16.176,-7.714 -13.922,-7.714C-12.461,-7.714 -11.047,-7.531 -9.676,-7.168C-8.309,-6.801 -7.029,-6.277 -5.842,-5.592C-4.656,-4.908 -3.568,-4.093 -2.578,-3.15C-1.59,-2.206 -0.729,-1.156 0,0L-5.34,3.424C-6.193,1.779 -7.365,0.465 -8.855,-0.525C-10.346,-1.514 -12.035,-2.009 -13.922,-2.009C-15.262,-2.009 -16.523,-1.726 -17.711,-1.165C-18.898,-0.601 -19.934,0.16 -20.814,1.119C-21.699,2.076 -22.396,3.203 -22.914,4.496C-23.432,5.79 -23.689,7.167 -23.689,8.627C-23.689,10.088 -23.432,11.466 -22.914,12.758C-22.396,14.051 -21.699,15.178 -20.814,16.137C-19.934,17.096 -18.898,17.856 -17.711,18.418C-16.523,18.983 -15.262,19.264 -13.922,19.264C-12.035,19.264 -10.346,18.768 -8.855,17.779C-7.365,16.791 -6.193,15.475 -5.34,13.832L0,17.255Z" style="fill:rgb(35,31,32);fill-rule:nonzero;"/>
        </g>
        <g transform="matrix(1,0,0,1,214.289,247.583)">
            <path d="M0,-32.775C2.252,-32.775 4.352,-32.342 6.299,-31.474C8.246,-30.607 9.936,-29.435 11.366,-27.96C12.795,-26.483 13.917,-24.75 14.721,-22.755C15.528,-20.763 15.932,-18.639 15.932,-16.388C15.932,-14.47 15.643,-12.644 15.065,-10.91C14.487,-9.175 13.663,-7.608 12.6,-6.209C11.534,-4.809 10.262,-3.614 8.787,-2.626C7.311,-1.636 5.691,-0.929 3.926,-0.504L0.73,-5.934C2.008,-6.027 3.174,-6.369 4.223,-6.961C5.271,-7.555 6.178,-8.315 6.937,-9.244C7.699,-10.173 8.293,-11.254 8.719,-12.486C9.145,-13.717 9.357,-15.019 9.357,-16.388C9.357,-17.818 9.121,-19.172 8.65,-20.451C8.178,-21.728 7.531,-22.839 6.711,-23.783C5.889,-24.726 4.906,-25.472 3.766,-26.019C2.625,-26.567 1.369,-26.84 0,-26.84C-1.369,-26.84 -2.625,-26.567 -3.766,-26.019C-4.908,-25.472 -5.896,-24.726 -6.732,-23.783C-7.57,-22.839 -8.225,-21.728 -8.695,-20.451C-9.168,-19.172 -9.404,-17.818 -9.404,-16.388C-9.404,-14.958 -9.168,-13.603 -8.695,-12.326C-8.225,-11.046 -7.57,-9.937 -6.732,-8.992C-5.896,-8.05 -4.908,-7.304 -3.766,-6.755C-2.625,-6.209 -1.369,-5.934 0,-5.934L0,0C-2.252,0 -4.352,-0.426 -6.299,-1.279C-8.248,-2.13 -9.936,-3.302 -11.367,-4.794C-12.797,-6.285 -13.916,-8.027 -14.721,-10.021C-15.527,-12.013 -15.932,-14.136 -15.932,-16.388C-15.932,-18.639 -15.527,-20.763 -14.721,-22.755C-13.916,-24.75 -12.797,-26.483 -11.367,-27.96C-9.936,-29.435 -8.248,-30.607 -6.299,-31.474C-4.352,-32.342 -2.252,-32.775 0,-32.775" style="fill:rgb(35,31,32);fill-rule:nonzero;"/>
        </g>
        <g transform="matrix(-1,-0,-0,1,490.842,53.881)">
            <rect x="242.088" y="161.337" width="6.666" height="31.953" style="fill:rgb(35,31,32);"/>
        </g>
        <g transform="matrix(1,0,0,1,281.664,247.171)">
            <path d="M0,-31.953L6.662,-31.953L6.662,-8.034L0,-12.828L0,-31.953ZM-13.924,-31.953L6.662,-2.282L6.662,0L0,0L-13.924,-20.084L-13.924,0L-20.588,0L-20.588,-31.953L-13.924,-31.953Z" style="fill:rgb(35,31,32);fill-rule:nonzero;"/>
        </g>
        <g transform="matrix(1,0,0,1,231.176,200.447)">
            <path d="M0,-39.468L-11.801,-10.579L-20.59,-31.557L-25.694,-23.182L-16.124,0L-7.667,0L8.516,-39.468L0,-39.468Z" style="fill:rgb(252,211,37);fill-rule:nonzero;"/>
        </g>
        <g transform="matrix(-0.386291,-0.922377,-0.922377,0.386291,203.599,160.734)">
            <path d="M-9.268,-3.293L-1.644,-3.293L1.644,4.56L-10.461,4.623L-9.268,-3.293Z" style="fill:rgb(252,211,37);fill-rule:nonzero;"/>
        </g>
    </g>
</svg>
