<svg width="145" height="20" viewBox="0 0 145 20" fill="none" xmlns="http://www.w3.org/2000/svg">
<path d="M11.4985 12.0288H6.85045L4.91574 8.31502H11.4985V12.0288ZM13.9714 0L14 3.34256H4.1999L4.17021 16.6854H13.9714V20H0V0H13.9714Z" fill="#0F0920"/>
<path d="M54.0011 0C55.4142 0 56.7319 0.264487 57.9538 0.79451C59.1767 1.32349 60.2364 2.03839 61.1345 2.9387C62.032 3.83953 62.734 4.89853 63.2404 6.11465C63.7473 7.33129 64 8.62597 64 10.0003C64 11.1698 63.8168 12.2843 63.4553 13.3422C63.0922 14.4012 62.5772 15.3581 61.9081 16.2113C61.2395 17.066 60.4422 17.7945 59.5167 18.3989C58.5895 19.0028 57.5713 19.4338 56.4642 19.6936L54.4585 16.3783C55.2617 16.3228 55.9912 16.1139 56.6517 15.752C57.31 15.3895 57.8773 14.9265 58.3557 14.3588C58.8319 13.7926 59.2053 13.1333 59.473 12.3817C59.7402 11.6291 59.8733 10.8361 59.8733 10.0003C59.8733 9.12772 59.7268 8.3002 59.4299 7.52088C59.1331 6.74051 58.728 6.06332 58.2118 5.48774C57.6974 4.91215 57.0805 4.45701 56.3634 4.12235C55.6469 3.78872 54.8598 3.62165 54.0011 3.62165C53.1407 3.62165 52.3526 3.78872 51.636 4.12235C50.9211 4.45701 50.3 4.91215 49.7747 5.48774C49.2489 6.06332 48.8384 6.74051 48.5415 7.52088C48.2452 8.3002 48.0982 9.12772 48.0982 10.0003C48.0982 10.8733 48.2452 11.6998 48.5415 12.4791C48.8384 13.259 49.2489 13.9372 49.7747 14.5123C50.3 15.0889 50.9211 15.543 51.636 15.8777C52.3526 16.2113 53.1407 16.3783 54.0011 16.3783V20C52.5863 20 51.2686 19.7402 50.0462 19.2207C48.8238 18.7006 47.7641 17.9857 46.8655 17.0749C45.9685 16.1662 45.266 15.1025 44.7596 13.8859C44.2532 12.6703 44 11.374 44 10.0003C44 8.62597 44.2532 7.33129 44.7596 6.11465C45.266 4.89853 45.9685 3.83953 46.8655 2.9387C47.7641 2.03839 48.8238 1.32349 50.0462 0.79451C51.2686 0.264487 52.5863 0 54.0011 0Z" fill="#0F0920"/>
<path d="M88 15.2793C87.5414 15.987 87.0017 16.6299 86.3807 17.2066C85.7591 17.784 85.0769 18.2822 84.3315 18.7013C83.5868 19.1203 82.7841 19.4415 81.9249 19.6646C81.065 19.8884 80.1765 20 79.2594 20C77.8451 20 76.5127 19.7392 75.2615 19.2176C74.0102 18.6967 72.9207 17.9844 71.995 17.0808C71.0679 16.1777 70.3371 15.1164 69.8026 13.8969C69.2675 12.6773 69 11.3785 69 10C69 8.62213 69.2675 7.32338 69.8026 6.10314C70.3371 4.8842 71.0679 3.82225 71.995 2.91924C72.9207 2.01622 74.0102 1.30392 75.2615 0.782351C76.5127 0.26143 77.8451 0 79.2594 0C80.1765 0 81.065 0.112227 81.9249 0.335387C82.7841 0.559195 83.5868 0.880306 84.3315 1.29938C85.0769 1.7178 85.7591 2.21667 86.3807 2.79338C87.0017 3.37074 87.5414 4.01363 88 4.72073L84.6463 6.81608C84.1119 5.80992 83.3758 5.00488 82.44 4.39962C81.5043 3.79437 80.4434 3.49205 79.2594 3.49205C78.4181 3.49205 77.6261 3.66396 76.8814 4.00843C76.1353 4.35354 75.4857 4.81869 74.932 5.40513C74.3776 5.99157 73.939 6.68116 73.6136 7.47195C73.2888 8.26404 73.1271 9.10607 73.1271 10C73.1271 10.8939 73.2888 11.7366 73.6136 12.5281C73.939 13.3195 74.3776 14.0084 74.932 14.5949C75.4857 15.182 76.1353 15.6471 76.8814 15.9916C77.6261 16.3367 78.4181 16.5086 79.2594 16.5086C80.4434 16.5086 81.5043 16.2063 82.44 15.6011C83.3758 14.9958 84.1119 14.1901 84.6463 13.1846L88 15.2793Z" fill="#0F0920"/>
<path d="M103 0C104.413 0 105.732 0.264581 106.955 0.793758C108.177 1.32358 109.237 2.03843 110.135 2.93893C111.032 3.83944 111.735 4.89843 112.241 6.11398C112.747 7.33083 113 8.62596 113 10C113 11.1703 112.818 12.2843 112.456 13.3426C112.093 14.401 111.577 15.3577 110.908 16.2117C110.24 17.0663 109.442 17.7953 108.516 18.3983C107.59 19.0018 106.572 19.434 105.464 19.694L103.459 16.3792C104.261 16.3229 104.992 16.114 105.651 15.7524C106.31 15.3901 106.878 14.9256 107.356 14.3596C107.833 13.7935 108.205 13.1337 108.473 12.3813C108.74 11.6296 108.874 10.8358 108.874 10C108.874 9.12732 108.726 8.30121 108.43 7.52103C108.134 6.74085 107.728 6.06353 107.212 5.48778C106.697 4.91202 106.08 4.45659 105.364 4.12278C104.648 3.78832 103.86 3.62142 103 3.62142C102.141 3.62142 101.353 3.78832 100.636 4.12278C99.9195 4.45659 99.2993 4.91202 98.7743 5.48778C98.2486 6.06353 97.8373 6.74085 97.5418 7.52103C97.2457 8.30121 97.0973 9.12732 97.0973 10C97.0973 10.8733 97.2457 11.6995 97.5418 12.479C97.8373 13.2592 98.2486 13.9371 98.7743 14.5129C99.2993 15.088 99.9195 15.5434 100.636 15.8779C101.353 16.2117 102.141 16.3792 103 16.3792V20C101.587 20 100.268 19.7399 99.0464 19.2205C97.8233 18.7004 96.7632 17.9855 95.8649 17.0753C94.9671 16.1657 94.2651 15.1022 93.7593 13.886C93.2536 12.6698 93 11.3747 93 10C93 8.62596 93.2536 7.33083 93.7593 6.11398C94.2651 4.89843 94.9671 3.83944 95.8649 2.93893C96.7632 2.03843 97.8233 1.32358 99.0464 0.793758C100.268 0.264581 101.587 0 103 0Z" fill="#0F0920"/>
<path d="M122 0H118V20H122V0Z" fill="#0F0920"/>
<path d="M140.598 0H145V14.971L140.598 11.9711V0ZM131.402 0L145 18.5714V20H140.598L131.402 7.42843V20H127V0H131.402Z" fill="#0F0920"/>
<path fill-rule="evenodd" clip-rule="evenodd" d="M23.174 0L24.6187 3.56389L21.2651 5.67085L19 0H23.174ZM29.0373 14.6391L34.8239 0H39L31.0647 20H26.9178L22.2249 8.25325L24.7276 4.00924L29.0373 14.6391Z" fill="#0F0920"/>
</svg>
