<svg width="129" height="90" viewBox="0 0 129 90" fill="none" xmlns="http://www.w3.org/2000/svg">
<path fill-rule="evenodd" clip-rule="evenodd" d="M0 0H33.9376V8.11633H0V0ZM0.0625 11.5345H9.04153V18.4567H25.6991V26.506H9.04153V34.8772H34.0001V43.9998H0.0625V11.5345Z" fill="black"/>
<path fill-rule="evenodd" clip-rule="evenodd" d="M42 0H49.8703L52.2871 8.31877H44.3471L42 0ZM48.1453 23.9745L53.1995 44H62.8914L76 0H66.2281L58.204 30.8886L55.9464 23.9745H48.1453Z" fill="black"/>
<path d="M106 0C101.058 -5.89282e-08 96.2607 1.6637 92.3799 4.72303C88.4992 7.78235 85.7615 12.0591 84.6079 16.8642C83.4543 21.6693 83.952 26.7228 86.0208 31.2105C88.0897 35.6982 91.6092 39.3587 96.0122 41.6021C100.415 43.8456 105.445 44.5413 110.292 43.5773C115.139 42.6132 119.52 40.0455 122.729 36.2879C125.938 32.5302 127.789 27.8015 127.983 22.8637C128.177 17.9259 126.703 13.0666 123.798 9.06873L115.978 14.7507C117.606 16.9919 118.433 19.7161 118.324 22.4842C118.215 25.2524 117.177 27.9033 115.378 30.0098C113.579 32.1164 111.123 33.5558 108.406 34.0963C105.689 34.6368 102.869 34.2467 100.401 32.989C97.9325 31.7314 95.9594 29.6793 94.7996 27.1634C93.6398 24.6476 93.3608 21.8146 94.0075 19.1209C94.6542 16.4271 96.189 14.0295 98.3645 12.3145C100.54 10.5994 103.23 9.66672 106 9.66672L106 0Z" fill="black"/>
<path d="M93 54H85V90H93V54Z" fill="black"/>
<path d="M101 75.0298V54H108L120.744 75.0298V54H129V90H121.731L108 69.0594V75.0298H101Z" fill="black"/>
<path d="M59 54C54.9569 54 51.0315 55.3612 47.8563 57.8643C44.6812 60.3674 42.4412 63.8666 41.4973 67.798C40.5535 71.7294 40.9607 75.8641 42.6534 79.5359C44.3461 83.2076 47.2257 86.2026 50.8282 88.0381C54.4306 89.8737 58.5462 90.4429 62.5116 89.6541C66.4771 88.8654 70.0615 86.7645 72.6873 83.6901C75.3131 80.6156 76.8274 76.7467 76.9861 72.7067C77.1449 68.6667 75.9388 64.6908 73.5623 61.4199L67.1637 66.0687C68.496 67.9025 69.1721 70.1313 69.0831 72.3962C68.9941 74.661 68.1452 76.83 66.6732 78.5535C65.2011 80.277 63.1917 81.4548 60.9686 81.897C58.7456 82.3392 56.4384 82.02 54.4188 80.991C52.3993 79.962 50.785 78.283 49.836 76.2246C48.8871 74.1662 48.6588 71.8483 49.1879 69.6443C49.7171 67.4404 50.9728 65.4787 52.7528 64.0755C54.5328 62.6722 56.7334 61.9091 59 61.9091L59 54Z" fill="black"/>
<path d="M32.9184 61.9282C30.7929 58.7799 27.7258 56.3847 24.1563 55.0855C20.5867 53.7863 16.6976 53.6497 13.0456 54.6953C9.39369 55.7408 6.16614 57.9149 3.82498 60.9064C1.48381 63.8978 0.149053 67.5533 0.0117603 71.3494C-0.125533 75.1456 0.941677 78.8879 3.06063 82.0407C5.17958 85.1934 8.24165 87.595 11.8085 88.9016C15.3754 90.2083 19.2642 90.353 22.9183 89.315C26.5724 88.2771 29.8045 86.1097 32.1519 83.1231L25.9336 78.2357C24.6176 79.91 22.8057 81.125 20.7572 81.7069C18.7087 82.2887 16.5286 82.2076 14.529 81.4751C12.5294 80.7426 10.8128 79.3963 9.62493 77.6288C8.43704 75.8614 7.83876 73.7634 7.91572 71.6353C7.99269 69.5071 8.74096 67.4579 10.0534 65.7809C11.3659 64.1038 13.1753 62.885 15.2226 62.2989C17.2699 61.7128 19.4501 61.7893 21.4512 62.5177C23.4523 63.246 25.1717 64.5887 26.3633 66.3537L32.9184 61.9282Z" fill="black"/>
</svg>
